<svg width="144" height="57" xmlns="http://www.w3.org/2000/svg"><path d="M6.672 4.696v6.178h5.402c1.073 0 1.878-.125 2.415-.374.95-.437 1.424-1.3 1.424-2.59 0-1.394-.46-2.33-1.378-2.808-.516-.27-1.29-.406-2.322-.406H6.672zM13.204.702c1.6.031 2.83.229 3.692.593a5.77 5.77 0 0 1 2.19 1.607 7.13 7.13 0 0 1 1.176 1.934c.29.708.434 1.514.434 2.419 0 1.092-.274 2.166-.82 3.221-.547 1.056-1.45 1.802-2.71 2.24 1.053.426 1.799 1.031 2.237 1.817.439.785.658 1.984.658 3.596v1.544c0 1.05.042 1.763.124 2.138.124.593.413 1.03.867 1.31v.577h-5.248a17.52 17.52 0 0 1-.31-1.232 11.41 11.41 0 0 1-.2-1.981l-.031-2.138c-.021-1.466-.287-2.444-.798-2.933-.51-.489-1.467-.733-2.871-.733H6.672v9.017h-4.66V.702h11.192zM34.89 20.266c1.889 0 3.388-.702 4.497-2.106 1.11-1.404 1.664-3.401 1.664-5.991 0-2.58-.554-4.574-1.664-5.983-1.11-1.41-2.608-2.114-4.497-2.114-1.888 0-3.395.702-4.52 2.106-1.124 1.404-1.687 3.401-1.687 5.991s.563 4.587 1.688 5.99c1.124 1.405 2.631 2.107 4.52 2.107zm10.93-8.096c0 4.13-1.15 7.291-3.452 9.486-1.723 1.789-4.215 2.683-7.477 2.683-3.26 0-5.753-.894-7.476-2.683-2.312-2.195-3.467-5.357-3.467-9.486 0-4.212 1.155-7.374 3.467-9.486C29.137.894 31.629 0 34.89 0c3.262 0 5.754.894 7.477 2.683 2.301 2.112 3.452 5.274 3.452 9.486zM64.579.702h6.858v22.996h-4.442V8.144c0-.447.005-1.074.015-1.88.01-.806.016-1.428.016-1.864l-4.32 19.298H58.08L53.79 4.4c0 .436.005 1.058.015 1.864.01.806.016 1.433.016 1.88v15.554h-4.443V.702h6.935l4.148 18.082L64.58.702zm17.524 14.306h5.789L85.044 5.96l-2.941 9.048zM82.397.702h5.387l8.08 22.996h-5.17l-1.47-4.727h-8.406l-1.58 4.727h-4.983L82.397.702zm16.284 0h5l9.086 16.054V.702H144v22.996h-31.558l-9.318-16.334v16.334H98.68V.702zM18.482 34.004v4.072h-6.826V57H6.857V38.076H0v-4.072h18.482zM25.634 57h-4.737V34.004h4.737V57zm4.411 0V34.004h4.722v8.768h8.916v-8.768h4.736V57h-4.736V46.734h-8.916V57h-4.722zm27.29 0H52.6V34.004h4.737V57zm17.461-22.996H98.06l-7.632 14.353V57H67.8v-8.643l-7.895-14.353h5.62L70.26 44.02l4.535-10.016z" fill-rule="evenodd" fill-opacity=".87"/></svg>