<svg height="127" width="323" xmlns="http://www.w3.org/2000/svg"><path d="M15.086 10.774v13.729h12.1c2.403 0 4.205-.277 5.407-.832 2.127-.97 3.19-2.89 3.19-5.755 0-3.097-1.029-5.177-3.086-6.24-1.155-.601-2.889-.902-5.2-.902zM29.716 1.9c3.582.07 6.338.509 8.268 1.318s3.565 1.999 4.906 3.57a15.822 15.822 0 0 1 2.634 4.3c.648 1.571.971 3.362.971 5.373 0 2.427-.612 4.813-1.837 7.159s-3.248 4.004-6.067 4.975c2.357.947 4.027 2.294 5.01 4.039.982 1.745 1.473 4.408 1.473 7.99v3.433c0 2.334.092 3.917.277 4.75.277 1.317.925 2.287 1.941 2.911V53H35.54c-.324-1.132-.555-2.045-.693-2.739a25.163 25.163 0 0 1-.451-4.403l-.07-4.75c-.046-3.258-.64-5.43-1.785-6.517-1.144-1.086-3.287-1.63-6.43-1.63H15.085V53H4.65V1.9zm48.57 43.474c4.23 0 7.586-1.56 10.07-4.68 2.485-3.12 3.727-7.558 3.727-13.313 0-5.731-1.242-10.163-3.726-13.295-2.485-3.131-5.842-4.697-10.071-4.697-4.23 0-7.604 1.56-10.123 4.68-2.52 3.12-3.78 7.557-3.78 13.312 0 5.755 1.26 10.193 3.78 13.313 2.519 3.12 5.893 4.68 10.123 4.68zM102.76 27.38c0 9.176-2.577 16.202-7.73 21.078-3.86 3.976-9.442 5.963-16.745 5.963-7.304 0-12.885-1.987-16.745-5.963-5.177-4.876-7.766-11.902-7.766-21.078 0-9.36 2.589-16.386 7.766-21.078C65.401 2.327 70.982.34 78.286.34c7.303 0 12.885 1.988 16.744 5.963 5.154 4.692 7.731 11.718 7.731 21.078zM144.78 1.9h15.358V53h-9.95V18.436c0-.994.012-2.386.035-4.177s.034-3.173.034-4.143L140.584 53h-10.366l-9.603-42.884c0 .97.012 2.351.035 4.143s.035 3.183.035 4.177V53h-9.95V1.9h15.531l9.291 40.18zm39.244 31.79h12.966l-6.38-20.107zm.659-31.79h12.064L214.843 53h-11.58l-3.293-10.504h-18.824L177.609 53h-11.163zm36.47 0h11.198l20.35 35.673V1.899h69.95V53h-70.678l-20.87-36.297V53h-9.95zm-179.614 74v9.048h-15.29V127H15.502V84.948H.144v-9.049zM57.554 127H46.946V75.9h10.608zm9.88 0V75.9h10.574v19.483h19.97V75.899h10.607V127H97.977v-22.812H78.008V127zm61.12 0h-10.608V75.9h10.608zm39.106-51.1h52.099l-17.092 31.894V127H151.99v-19.206l-17.68-31.895h12.584l10.608 22.257z" fill="#fff" fill-opacity=".87" fill-rule="evenodd"/></svg>